<svg width="13" height="10" viewBox="0 0 13 10" fill="none" xmlns="http://www.w3.org/2000/svg">
<path d="M11.9391 4.69214C10.2154 0.180396 7.8144 0.412069 7.59704 4.19242C7.72077 4.3269 7.87653 4.42184 8.04711 4.46674C8.2177 4.51165 8.39646 4.50477 8.56364 4.44687C8.42862 3.93556 8.76725 3.44044 9.00299 3.22064C9.04622 3.18078 9.10233 3.16103 9.15902 3.16572C9.21571 3.1704 9.26837 3.19913 9.30549 3.24562C9.34261 3.29212 9.36116 3.35259 9.35709 3.41381C9.35301 3.47503 9.32665 3.53202 9.28375 3.57231C9.26232 3.59082 8.88084 3.95871 8.97942 4.32657C9.19676 4.24128 9.39013 4.09706 9.54093 3.90779C9.55921 3.88467 9.58153 3.86567 9.60662 3.85188C9.63171 3.83808 9.65907 3.82977 9.68714 3.8274C9.71521 3.82504 9.74344 3.82867 9.77021 3.8381C9.79697 3.84753 9.82175 3.86256 9.84313 3.88234C10.1947 4.26183 9.14436 4.81184 8.83156 4.86103C8.95189 4.94655 9.08747 5.00391 9.22959 5.02942C9.3717 5.05492 9.51718 5.048 9.65666 5.00911C9.71207 4.99556 9.77018 5.0062 9.81836 5.03871C9.86653 5.07121 9.90085 5.12294 9.91385 5.18264C9.96915 5.50168 9.57265 5.50088 9.3845 5.50888C9.1744 5.50645 8.96725 5.45518 8.77715 5.35856C8.58706 5.26194 8.41848 5.12224 8.28288 4.94897C8.25716 4.94897 8.23144 4.95128 8.20786 4.95128C8.04126 4.95482 7.87585 4.92013 7.72259 4.84952C7.56932 4.7789 7.43169 4.67397 7.31879 4.54165C7.20588 4.40933 7.12029 4.25265 7.06766 4.08196C7.01502 3.91127 6.99655 3.73046 7.01347 3.55149L7.01344 0H6.03783V3.5515C6.02351 4.1826 5.94468 4.3127 5.6832 4.57878C5.55883 4.70633 5.41155 4.80499 5.25047 4.86866C5.08938 4.93234 4.91791 4.95967 4.74665 4.94897C4.61106 5.12224 4.44248 5.26194 4.25239 5.35856C4.0623 5.45518 3.85516 5.50646 3.64506 5.5089C3.45624 5.50093 3.06049 5.50162 3.11571 5.18266C3.12896 5.12312 3.16333 5.07157 3.21143 5.03912C3.25953 5.00667 3.31752 4.9959 3.3729 5.00914C3.51237 5.04816 3.65788 5.05514 3.80001 5.02964C3.94214 5.00413 4.07773 4.9467 4.19801 4.86106C4.15957 4.85277 4.12164 4.84196 4.08442 4.82868C3.77165 4.74344 2.85819 4.24448 3.1864 3.88238C3.20778 3.8626 3.23256 3.84756 3.25933 3.83813C3.2861 3.8287 3.31432 3.82507 3.34239 3.82743C3.37047 3.82979 3.39783 3.83811 3.42292 3.8519C3.44801 3.8657 3.47034 3.8847 3.48862 3.90782C3.63942 4.09709 3.83279 4.2413 4.05012 4.3266C4.14871 3.95641 3.76507 3.58853 3.7458 3.57233C3.70302 3.53201 3.67675 3.47506 3.67273 3.4139C3.66871 3.35275 3.68726 3.29236 3.72434 3.24592C3.76141 3.19948 3.814 3.17075 3.87062 3.16602C3.92724 3.16129 3.9833 3.18093 4.02655 3.22066C4.2623 3.44047 4.60092 3.93558 4.4659 4.44691C4.63315 4.50418 4.81175 4.51073 4.98221 4.46585C5.15267 4.42096 5.30843 4.32637 5.43247 4.1924C5.41296 3.19402 4.98659 1.10437 3.64078 1.34423C3.02141 1.49002 2.07841 2.19107 1.09256 4.68754C1.06041 4.76389 0.297441 6.59633 0.573918 8.29689C0.658768 8.78106 0.899205 9.21735 1.25285 9.52888C1.6065 9.8404 2.05066 10.0072 2.50704 9.99976C3.51461 9.95197 4.90263 9.2633 5.12383 7.8804C5.18674 7.43326 5.27794 6.8295 5.31674 6.39735C4.71687 6.43542 4.15358 6.72125 3.74366 7.19558C3.79408 7.2921 3.86436 7.37484 3.94907 7.43742C4.03379 7.49999 4.13068 7.54074 4.23229 7.55651C4.28556 7.565 4.33392 7.59482 4.36776 7.64004C4.40161 7.68526 4.41844 7.74257 4.41493 7.80058C4.41142 7.8586 4.38782 7.91306 4.34882 7.95314C4.30982 7.99323 4.25827 8.016 4.20443 8.01693C4.06128 8.00104 3.92259 7.95411 3.79665 7.87897C3.6707 7.80383 3.5601 7.70202 3.47148 7.57964C3.40705 7.68977 3.35045 7.80502 3.30217 7.92439C3.29108 7.95222 3.27502 7.97742 3.2549 7.99853C3.23478 8.01965 3.21099 8.03627 3.18491 8.04745C3.15883 8.05862 3.13096 8.06413 3.1029 8.06366C3.07485 8.06319 3.04715 8.05674 3.0214 8.0447C2.67979 7.8685 3.14335 7.30226 3.26355 7.09145C3.12891 7.09026 2.99607 7.05783 2.87405 6.99636C2.75202 6.93488 2.64367 6.8458 2.55634 6.73516C2.52298 6.6863 2.50876 6.62523 2.51675 6.56515C2.52473 6.50506 2.55429 6.45078 2.59904 6.41403C2.64378 6.37727 2.70012 6.36098 2.75589 6.36869C2.81166 6.37639 2.86239 6.40747 2.89712 6.45521C3.05999 6.68656 3.50363 6.64029 3.64507 6.60559C3.66472 6.6006 3.68498 6.59904 3.70508 6.60096C4.19803 6.16619 4.81521 5.9291 5.45175 5.92999H7.60135C8.31344 5.92872 8.99841 6.22467 9.51305 6.75598C9.75524 6.78837 10.0381 6.7606 10.1581 6.5894C10.1929 6.54179 10.2436 6.51082 10.2993 6.50318C10.355 6.49554 10.4113 6.51184 10.456 6.54855C10.5007 6.58527 10.5302 6.63947 10.5383 6.69947C10.5463 6.75948 10.5322 6.82049 10.4989 6.86935C10.4223 6.97017 10.3275 7.05312 10.2203 7.11318C10.1131 7.17323 9.9957 7.20914 9.87525 7.21871C10.0079 7.44217 10.3953 7.99105 9.94812 8.06323C9.74646 8.06456 9.7211 7.8007 9.62663 7.65832C9.54089 7.79244 9.43 7.90562 9.30115 7.99052C9.1723 8.07541 9.02837 8.13013 8.87867 8.15113C8.82247 8.15868 8.76577 8.14203 8.72085 8.1048C8.67593 8.06756 8.64639 8.01273 8.63863 7.95216C8.63171 7.89124 8.6471 7.82981 8.68154 7.78096C8.71597 7.73212 8.76671 7.69973 8.82295 7.6907C8.9467 7.67111 9.0631 7.61523 9.15947 7.52915C9.25583 7.44306 9.32847 7.33008 9.36946 7.20251C9.3356 7.19576 9.30389 7.17984 9.2773 7.15624C8.97021 6.81446 8.57911 6.57445 8.14999 6.46443C8.00701 6.42465 7.86038 6.40214 7.71279 6.39733C7.73637 6.6611 7.77066 6.9318 7.80922 7.20712L7.90995 7.90123C8.08784 8.68326 8.5979 9.29407 9.3866 9.67352C9.74996 9.84612 10.1361 9.9562 10.531 9.99975C13.5451 9.81702 12.3318 5.56796 11.9391 4.69214Z" fill="white"/>
</svg>
